#!OML:ASF G:\JayActor3\Patient Classification 1\Patient 1\Session 5\male.ASF
:FULLY-SPECIFIED
:DEGREES
667
root -5.30475 16.6855 -5.28216 178.578 -83.7695 -182.82
lowerback 1.98682 -0.78 -1.10847
upperback 2.31112 -1.07676 -0.907746
thorax 1.25658 -0.561524 -0.299869
lowerneck -7.41769 1.46114 2.93488
upperneck 10.9829 1.41848 1.01142
head 4.5246 0.846473 -0.0837476
rclavicle -3.27187e-014 4.77083e-015
rhumerus -34.2797 -3.64665 -87.6824
rradius 30.0168
rwrist 0.369569
rhand -18.294 -7.30176
rfingers 7.12502
rthumb 7.98663 -37.1309
lclavicle -3.27187e-014 4.77083e-015
lhumerus -31.0104 8.4018 82.2755
lradius 22.4928
lwrist 14.8199
lhand -18.3558 15.4948
lfingers 7.12502
lthumb 7.92697 45.3262
rfemur -27.6554 5.01502 19.3064
rtibia 63.2766
rfoot -17.2015 -11.1518
rtoes -11.7956
lfemur 5.42208 7.13482 -24.1075
ltibia 17.6022
lfoot -15.6465 -1.09922
ltoes -1.37764
668
root -5.23126 16.683 -5.2786 177.967 -83.747 -182.263
lowerback 1.94251 -0.786767 -1.05028
upperback 2.30897 -1.08416 -0.897249
thorax 1.27831 -0.56433 -0.322318
lowerneck -7.40694 1.46122 2.93109
upperneck 10.9684 1.42328 0.984578
head 4.51852 0.847058 -0.0912197
rclavicle -5.70264e-015 -6.36111e-015
rhumerus -34.3517 -3.72987 -87.6334
rradius 29.8756
rwrist 0.464705
rhand -18.2936 -7.2989
rfingers 7.12502
rthumb 7.98699 -37.128
lclavicle -5.70264e-015 -6.36111e-015
lhumerus -31.0818 8.61469 82.1707
lradius 22.2788
lwrist 14.6359
lhand -18.337 15.4636
lfingers 7.12502
lthumb 7.94505 45.2942
rfemur -27.0695 4.98084 19.3784
rtibia 64.3825
rfoot -16.9255 -10.8612
rtoes -11.7846
lfemur 4.92732 7.15737 -24.0374
ltibia 18.1119
lfoot -15.7149 -1.16539
ltoes -1.13159
669
root -5.15847 16.6818 -5.27556 177.478 -83.7338 -181.829
lowerback 1.89022 -0.791304 -1.00421
upperback 2.30967 -1.08862 -0.891555
thorax 1.30755 -0.565859 -0.343097
lowerneck -7.40192 1.45747 2.92974
upperneck 10.954 1.42233 0.958718
head 4.51338 0.845011 -0.099092
rclavicle -5.08143e-015 7.15625e-015
rhumerus -34.4182 -3.82668 -87.5797
rradius 29.738
rwrist 0.564513
rhand -18.2899 -7.3021
rfingers 7.12502
rthumb 7.99058 -37.1311
lclavicle -5.08143e-015 7.15625e-015
lhumerus -31.1512 8.79717 82.0776
lradius 22.092
lwrist 14.4731
lhand -18.3217 15.4254
lfingers 7.12502
lthumb 7.95986 45.2555
rfemur -26.4269 4.95557 19.4378
rtibia 65.3983
rfoot -16.6554 -10.5395
rtoes -11.7734
lfemur 4.46959 7.17359 -23.9794
ltibia 18.5521
lfoot -15.7375 -1.23792
ltoes -0.898654
670
root -5.08602 16.6822 -5.27308 176.986 -83.7224 -181.38
lowerback 1.825 -0.793518 -0.95744
upperback 2.3099 -1.08978 -0.884877
thorax 1.34357 -0.565702 -0.363498
lowerneck -7.40018 1.45248 2.92636
upperneck 10.9408 1.41932 0.936952
head 4.50909 0.842131 -0.105472
rclavicle -2.74944e-014 -3.97569e-016
rhumerus -34.4786 -3.9292 -87.5228
rradius 29.6052
rwrist 0.664566
rhand -18.2947 -7.31056
rfingers 7.12502
rthumb 7.98592 -37.1397
lclavicle -2.74944e-014 -3.97569e-016
lhumerus -31.2162 8.96559 81.9915
lradius 21.9279
lwrist 14.3137
lhand -18.2995 15.384
lfingers 7.12502
lthumb 7.9813 45.2134
rfemur -25.7398 4.94727 19.5029
rtibia 66.3198
rfoot -16.3783 -10.2139
rtoes -11.7918
lfemur 4.03862 7.185 -23.9187
ltibia 18.9228
lfoot -15.7113 -1.31016
ltoes -0.680914
671
root -5.01405 16.6843 -5.2711 176.523 -83.7092 -180.954
lowerback 1.75092 -0.793068 -0.913717
upperback 2.30775 -1.0873 -0.877849
thorax 1.38218 -0.563724 -0.381974
lowerneck -7.39789 1.44645 2.92111
upperneck 10.9306 1.41476 0.917473
head 4.50559 0.838556 -0.110933
rclavicle 5.33613e-015 -3.18055e-015
rhumerus -34.538 -4.0281 -87.4656
rradius 29.478
rwrist 0.753905
rhand -18.3041 -7.30544
rfingers 7.12502
rthumb 7.97683 -37.1349
lclavicle 5.33613e-015 -3.18055e-015
lhumerus -31.2805 9.11179 81.9178
lradius 21.7885
lwrist 14.1864
lhand -18.296 15.3368
lfingers 7.12502
lthumb 7.9847 45.166
rfemur -25.0074 4.95701 19.5701
rtibia 67.1451
rfoot -16.0964 -9.88676
rtoes -11.8097
lfemur 3.64256 7.19185 -23.8602
ltibia 19.2151
lfoot -15.6396 -1.37841
ltoes -0.468414
672
root -4.94251 16.6882 -5.26949 176.051 -83.6915 -180.508
lowerback 1.66797 -0.789208 -0.866612
upperback 2.30135 -1.08013 -0.869636
thorax 1.42136 -0.559281 -0.401239
lowerneck -7.39791 1.44067 2.91575
upperneck 10.9274 1.40987 0.900999
head 4.50459 0.835027 -0.115431
rclavicle -2.73329e-015 -1.07344e-014
rhumerus -34.5982 -4.12205 -87.4091
rradius 29.3571
rwrist 0.832562
rhand -18.3087 -7.30157
rfingers 7.12502
rthumb 7.97236 -37.1312
lclavicle -2.73329e-015 -1.07344e-014
lhumerus -31.3411 9.24625 81.8503
lradius 21.6701
lwrist 14.0678
lhand -18.2915 15.3258
lfingers 7.12502
lthumb 7.98901 45.1548
rfemur -24.2363 4.98223 19.6439
rtibia 67.8735
rfoot -15.8052 -9.55362
rtoes -11.8267
lfemur 3.27673 7.19589 -23.799
ltibia 19.434
lfoot -15.5301 -1.44103
ltoes -0.249957
673
root -4.87157 16.6939 -5.2681 175.598 -83.6703 -180.076
lowerback 1.57753 -0.782574 -0.818285
upperback 2.29173 -1.06918 -0.861085
thorax 1.46144 -0.552877 -0.420923
lowerneck -7.39405 1.43555 2.9083
upperneck 10.9281 1.40556 0.888803
head 4.50411 0.831924 -0.118259
rclavicle 6.52262e-015 7.95139e-016
rhumerus -34.6602 -4.20561 -87.3539
rradius 29.2429
rwrist 0.897615
rhand -18.3091 -7.29277
rfingers 7.12502
rthumb 7.97204 -37.1224
lclavicle 6.52262e-015 7.95139e-016
lhumerus -31.4009 9.36977 81.7906
lradius 21.5726
lwrist 13.9649
lhand -18.2856 15.3233
lfingers 7.12502
lthumb 7.99468 45.1521
rfemur -23.4242 5.02081 19.7208
rtibia 68.5053
rfoot -15.5035 -9.23828
rtoes -11.8889
lfemur 2.94744 7.20149 -23.7383
ltibia 19.5779
lfoot -15.3883 -1.49724
ltoes -0.0381995
674
root -4.80077 16.7009 -5.2669 175.121 -83.6413 -179.61
lowerback 1.48479 -0.770704 -0.761621
upperback 2.27762 -1.05124 -0.852205
thorax 1.49809 -0.542777 -0.444908
lowerneck -7.39083 1.42957 2.90258
upperneck 10.9338 1.39945 0.878549
head 4.50528 0.828138 -0.120858
rclavicle -6.31141e-015 -4.37326e-015
rhumerus -34.7219 -4.28316 -87.3021
rradius 29.1368
rwrist 0.944282
rhand -18.3121 -7.27749
rfingers 7.12502
rthumb 7.96913 -37.1073
lclavicle -6.31141e-015 -4.37326e-015
lhumerus -31.4562 9.47372 81.7418
lradius 21.4944
lwrist 13.896
lhand -18.3077 15.2704
lfingers 7.12502
lthumb 7.97336 45.1001
rfemur -22.5819 5.07566 19.809
rtibia 69.044
rfoot -15.1947 -8.94501
rtoes -11.9549
lfemur 2.64486 7.20942 -23.6719
ltibia 19.6573
lfoot -15.219 -1.55058
ltoes 0.197968
675
root -4.73064 16.7092 -5.26576 174.647 -83.6117 -179.146
lowerback 1.3874 -0.756651 -0.699147
upperback 2.26343 -1.03041 -0.844118
thorax 1.5372 -0.531116 -0.472989
lowerneck -7.38841 1.42235 2.89544
upperneck 10.9465 1.39091 0.873546
head 4.50864 0.823421 -0.121735
rclavicle -2.02139e-014 -5.56597e-015
rhumerus -34.7811 -4.35499 -87.2519
rradius 29.0385
rwrist 0.983699
rhand -18.2969 -7.27946
rfingers 7.12502
rthumb 7.98377 -37.1087
lclavicle -2.02139e-014 -5.56597e-015
lhumerus -31.5149 9.55563 81.705
lradius 21.4451
lwrist 13.8551
lhand -18.329 15.228
lfingers 7.12502
lthumb 7.95278 45.0584
rfemur -21.7021 5.1358 19.9016
rtibia 69.4921
rfoot -14.8753 -8.67919
rtoes -12.033
lfemur 2.37492 7.2257 -23.6018
ltibia 19.6826
lfoot -15.036 -1.61352
ltoes 0.457266
676
root -4.66053 16.7182 -5.26479 174.09 -83.5741 -178.593
lowerback 1.28741 -0.738013 -0.620835
upperback 2.2479 -1.00351 -0.8345
thorax 1.57621 -0.516139 -0.508336
lowerneck -7.38624 1.41494 2.88654
upperneck 10.9616 1.38144 0.875177
head 4.51272 0.818554 -0.120335
rclavicle 7.06307e-015 7.15625e-015
rhumerus -34.833 -4.43101 -87.201
rradius 28.945
rwrist 1.03044
rhand -18.2704 -7.292
rfingers 7.12502
rthumb 8.00933 -37.1202
lclavicle 7.06307e-015 7.15625e-015
lhumerus -31.5702 9.61535 81.6798
lradius 21.4188
lwrist 13.8442
lhand -18.369 15.1336
lfingers 7.12502
lthumb 7.91418 44.9654
rfemur -20.8006 5.20796 20.0136
rtibia 69.8544
rfoot -14.5317 -8.46079
rtoes -12.1082
lfemur 2.12024 7.25535 -23.5163
ltibia 19.6711
lfoot -14.8347 -1.68378
ltoes 0.680839
677
root -4.5904 16.7276 -5.26416 173.476 -83.5321 -177.977
lowerback 1.18472 -0.716004 -0.531263
upperback 2.23171 -0.972239 -0.824286
thorax 1.616 -0.498765 -0.549335
lowerneck -7.39441 1.40691 2.87718
upperneck 10.9879 1.36977 0.882915
head 4.52191 0.813049 -0.117006
rclavicle -3.06874e-014 -8.74653e-015
rhumerus -34.8759 -4.51366 -87.1504
rradius 28.8551
rwrist 1.0851
rhand -18.2447 -7.30142
rfingers 7.12502
rthumb 8.03417 -37.1287
lclavicle -3.06874e-014 -8.74653e-015
lhumerus -31.627 9.64034 81.6695
lradius 21.424
lwrist 13.8746
lhand -18.4115 15.051
lfingers 7.12502
lthumb 7.87315 44.8844
rfemur -19.8828 5.28833 20.1413
rtibia 70.1346
rfoot -14.1561 -8.2739
rtoes -12.0892
lfemur 1.87588 7.29809 -23.417
ltibia 19.6326
lfoot -14.6221 -1.77161
ltoes 0.880689
678
root -4.52005 16.7373 -5.26398 172.79 -83.4818 -177.279
lowerback 1.07845 -0.690905 -0.429923
upperback 2.21347 -0.936994 -0.811822
thorax 1.65564 -0.479183 -0.594556
lowerneck -7.41392 1.39865 2.86404
upperneck 11.0267 1.35657 0.898492
head 4.53676 0.807205 -0.110629
rclavicle -3.4368e-015 3.57812e-015
rhumerus -34.9092 -4.59897 -87.1014
rradius 28.7681
rwrist 1.14594
rhand -18.2207 -7.3086
rfingers 7.12502
rthumb 8.05736 -37.135
lclavicle -3.4368e-015 3.57812e-015
lhumerus -31.682 9.64962 81.6662
lradius 21.4538
lwrist 13.9189
lhand -18.4481 14.9601
lfingers 7.12502
lthumb 7.83788 44.7948
rfemur -18.958 5.38277 20.2903
rtibia 70.3351
rfoot -13.7325 -8.12278
rtoes -12.004
lfemur 1.62946 7.35501 -23.3002
ltibia 19.5829
lfoot -14.4048 -1.88205
ltoes 1.07377
679
root -4.44954 16.747 -5.26417 172.131 -83.4312 -176.602
lowerback 0.971568 -0.666299 -0.329019
upperback 2.19245 -0.902627 -0.799728
thorax 1.69291 -0.46001 -0.63981
lowerneck -7.4417 1.39047 2.84982
upperneck 11.0777 1.34278 0.915793
head 4.55674 0.801234 -0.103486
rclavicle 1.06847e-015 3.97569e-015
rhumerus -34.934 -4.68156 -87.0549
rradius 28.6832
rwrist 1.20864
rhand -18.2026 -7.30641
rfingers 7.12502
rthumb 8.07483 -37.1321
lclavicle 1.06847e-015 3.97569e-015
lhumerus -31.7426 9.64707 81.6694
lradius 21.512
lwrist 13.9833
lhand -18.4768 14.8774
lfingers 7.12502
lthumb 7.81015 44.7132
rfemur -18.0254 5.48077 20.4447
rtibia 70.4566
rfoot -13.2375 -7.99912
rtoes -11.8851
lfemur 1.38268 7.42587 -23.1785
ltibia 19.5242
lfoot -14.1825 -2.02552
ltoes 1.30036
680
root -4.37835 16.7566 -5.2648 171.475 -83.3744 -175.915
lowerback 0.865361 -0.640751 -0.225615
upperback 2.16556 -0.867215 -0.786701
thorax 1.72387 -0.440235 -0.685352
lowerneck -7.47725 1.38248 2.83803
upperneck 11.1367 1.32891 0.929625
head 4.58053 0.795215 -0.0977341
rclavicle -3.96529e-014 1.35174e-014
rhumerus -34.9522 -4.75877 -87.0122
rradius 28.6059
rwrist 1.27223
rhand -18.179 -7.3096
rfingers 7.12502
rthumb 8.09755 -37.1345
lclavicle -3.96529e-014 1.35174e-014
lhumerus -31.8096 9.63271 81.6778
lradius 21.5993
lwrist 14.066
lhand -18.4973 14.7902
lfingers 7.12502
lthumb 7.79033 44.6267
rfemur -17.1012 5.5872 20.6092
rtibia 70.4986
rfoot -12.659 -7.88303
rtoes -11.746
lfemur 1.12195 7.51056 -23.0478
ltibia 19.4605
lfoot -13.9531 -2.19885
ltoes 1.57762
681
root -4.30701 16.7659 -5.26564 170.933 -83.3221 -175.336
lowerback 0.758306 -0.617288 -0.132082
upperback 2.13394 -0.834735 -0.776886
thorax 1.75064 -0.422049 -0.728562
lowerneck -7.5109 1.37485 2.82594
upperneck 11.1985 1.31543 0.943997
head 4.60486 0.789403 -0.0917532
rclavicle -1.85895e-015 3.97569e-015
rhumerus -34.9654 -4.83258 -86.9723
rradius 28.5314
rwrist 1.33253
rhand -18.1642 -7.30378
rfingers 7.12502
rthumb 8.11187 -37.1281
lclavicle -1.85895e-015 3.97569e-015
lhumerus -31.8838 9.62133 81.6855
lradius 21.7072
lwrist 14.1486
lhand -18.4991 14.7396
lfingers 7.12502
lthumb 7.78859 44.5762
rfemur -16.1763 5.68774 20.7619
rtibia 70.4576
rfoot -12.0094 -7.75114
rtoes -11.6158
lfemur 0.856431 7.60839 -22.925
ltibia 19.3905
lfoot -13.7158 -2.40133
ltoes 1.90444
